<svg xmlns="http://www.w3.org/2000/svg" viewBox="0 0 128 128"><rect width="128" height="128" fill="none"/><path d="M118.53,62.47a6.64,6.64,0,0,0-11.76,6.16,8.26,8.26,0,0,1-.26,8.74c-2.1,3.19-6.06,4.89-10.56,4.53-9.43-.74-22.73-11.19-27.28-15.35,1.26-6.29,4.43-25.76-1.54-38.36-4-8.39-11.77-13.93-20.35-14.47A21.66,21.66,0,0,0,27.05,24a6.63,6.63,0,1,0,11.19,7.13A8.25,8.25,0,0,1,46,27c3.82.23,7.25,2.82,9.19,6.9,3.92,8.28,1.75,24.24.39,30.7-5.9,2-24.6,9.05-32.57,20.65-5.26,7.66-6.14,17.18-2.29,24.87A21.6,21.6,0,0,0,39.41,122h.28A6.63,6.63,0,0,0,40,108.75a8.27,8.27,0,0,1-7.43-4.6c-1.7-3.42-1.2-7.68,1.37-11.41,5.22-7.6,20.28-13.77,26.48-15.8C64.56,80.67,80.49,94,94.91,95.13c.72.05,1.43.08,2.14.08a24.38,24.38,0,0,0,20.54-10.54A21.61,21.61,0,0,0,118.53,62.47Z"/></svg>