<svg xmlns="http://www.w3.org/2000/svg" viewBox="0 0 128 128"><rect width="128" height="128" fill="none"/><path d="M115.67,47a34.49,34.49,0,0,0-27.81-7.24,51.67,51.67,0,0,0-17,6A43.92,43.92,0,0,0,67,27.46C62.64,17.65,54.54,10,45.38,7.07,39,5,32.68,5.44,27.7,8.31c-5.34,3.08-9.15,9-10.45,16.3a34.47,34.47,0,0,0,7.64,27.7,51.54,51.54,0,0,0,14.34,12A44.11,44.11,0,0,0,25.38,76.8c-6.29,8.72-8.84,19.54-6.83,29,1.41,6.59,4.94,11.81,9.92,14.69A20.21,20.21,0,0,0,38.63,123a27.09,27.09,0,0,0,9.18-1.67A34.49,34.49,0,0,0,68,100.88a51.84,51.84,0,0,0,3.23-17.65,43.82,43.82,0,0,0,17.1,5.41,40.94,40.94,0,0,0,4.13.21c9.25,0,18.13-3.15,24.35-8.77,5-4.52,7.77-10.18,7.77-15.94C124.56,58,121.32,51.71,115.67,47ZM35.09,43.83A21.06,21.06,0,0,1,30.31,27c.59-3.32,2.13-6.06,4-7.15a6.43,6.43,0,0,1,3.21-.75,12.34,12.34,0,0,1,3.76.65c4.36,1.41,10.23,5.61,13.63,13.19a33.18,33.18,0,0,1,.93,23.94A38.88,38.88,0,0,1,35.09,43.83ZM55.53,96.28A21.06,21.06,0,0,1,43.3,108.87c-3.17,1.14-6.31,1.18-8.2.09-1.66-1-3-3.14-3.57-6-1-4.48-.25-11.67,4.61-18.41A33.14,33.14,0,0,1,56.41,71.8,38.93,38.93,0,0,1,55.53,96.28Zm52.37-26c-3.4,3.07-10,6-18.25,5.21A33.14,33.14,0,0,1,68.46,64.27,38.88,38.88,0,0,1,90.1,52.79a21.09,21.09,0,0,1,17,4.3c2.57,2.17,4.17,4.87,4.17,7C111.29,66.07,110.05,68.28,107.9,70.23Z"/></svg>