<svg xmlns="http://www.w3.org/2000/svg" viewBox="0 0 128 128"><rect width="128" height="128" fill="none"/><path d="M119.81,64a6.5,6.5,0,0,0-6.5-6.5h-1l.52-.91a6.5,6.5,0,1,0-11.26-6.5L101,51l-.52-.91a6.52,6.52,0,0,0-7.5-3,6.49,6.49,0,0,0,1.18-8l-.53-.91h1a6.5,6.5,0,0,0,0-13h-1l.53-.9a6.5,6.5,0,1,0-11.26-6.5l-.52.9-.53-.9a6.5,6.5,0,1,0-11.26,6.5l.53.9h-1a6.51,6.51,0,0,0-6.32,5,6.51,6.51,0,0,0-6.32-5h-1l.52-.9a6.5,6.5,0,1,0-11.26-6.5l-.52.9-.53-.9a6.5,6.5,0,1,0-11.26,6.5l.53.9H32.83a6.5,6.5,0,1,0,0,13h1.05l-.53.91a6.49,6.49,0,0,0,1.18,8,6.51,6.51,0,0,0-7.5,3l-.52.91L26,50.09a6.5,6.5,0,1,0-11.26,6.5l.52.91h-1a6.5,6.5,0,0,0,0,13h1l-.52.91a6.49,6.49,0,0,0,2.38,8.87,6.37,6.37,0,0,0,3.24.88A6.52,6.52,0,0,0,26,77.91l.52-.91.52.91a6.52,6.52,0,0,0,5.64,3.25,6.28,6.28,0,0,0,1.86-.29,6.51,6.51,0,0,0-1.18,8l.53.91H32.83a6.5,6.5,0,0,0,0,13h1.05l-.53.9a6.51,6.51,0,0,0,2.38,8.88,6.48,6.48,0,0,0,8.88-2.38l.53-.9.52.9a6.5,6.5,0,0,0,11.26-6.5l-.52-.9h1a6.51,6.51,0,0,0,6.32-5,6.51,6.51,0,0,0,6.32,5h1l-.53.9A6.5,6.5,0,0,0,73,112.54a6.41,6.41,0,0,0,3.25.88,6.49,6.49,0,0,0,5.63-3.26l.53-.9.52.9a6.5,6.5,0,0,0,11.26-6.5l-.53-.9h1a6.5,6.5,0,0,0,0-13h-1l.53-.91a6.5,6.5,0,0,0-1.18-8,6.28,6.28,0,0,0,1.86.29,6.52,6.52,0,0,0,5.64-3.25L101,77l.52.91a6.52,6.52,0,0,0,5.64,3.25,6.37,6.37,0,0,0,3.24-.88,6.48,6.48,0,0,0,2.38-8.87l-.52-.91h1A6.5,6.5,0,0,0,119.81,64Zm-56,30.76a6.5,6.5,0,0,0-6.32-5h-1l.52-.91a6.5,6.5,0,0,0-11.26-6.5l-.52.91-.53-.91a6.49,6.49,0,0,0-7.49-3,6.49,6.49,0,0,0,1.17-8l-.52-.91h1a6.5,6.5,0,0,0,0-13h-1l.52-.91a6.51,6.51,0,0,0-1.17-8A6.23,6.23,0,0,0,39,48.9a6.5,6.5,0,0,0,5.63-3.25l.53-.91.52.91a6.5,6.5,0,0,0,11.26-6.5l-.52-.91h1a6.5,6.5,0,0,0,6.32-5,6.5,6.5,0,0,0,6.32,5h1l-.53.91a6.5,6.5,0,0,0,11.26,6.5l.53-.91.52.91a6.5,6.5,0,0,0,5.63,3.25,6.34,6.34,0,0,0,1.87-.29,6.5,6.5,0,0,0-1.18,8l.52.91h-1a6.5,6.5,0,1,0,0,13h1l-.52.91a6.49,6.49,0,0,0,1.17,8,6.49,6.49,0,0,0-7.49,3l-.52.91-.53-.91a6.5,6.5,0,0,0-11.26,6.5l.53.91h-1A6.5,6.5,0,0,0,63.76,94.76Z"/></svg>