<svg xmlns="http://www.w3.org/2000/svg" xmlns:xlink="http://www.w3.org/1999/xlink" viewBox="0 0 224.09 223.97"><defs><radialGradient id="a" cx="112.04" cy="111.99" r="112.01" gradientUnits="userSpaceOnUse"><stop offset="0" stop-color="#67adbb"/><stop offset="0.38" stop-color="#86bfcf"/><stop offset="0.57" stop-color="#8ac0d0"/><stop offset="0.69" stop-color="#71aec1"/><stop offset="1" stop-color="#2278ac"/></radialGradient></defs><path d="M217.59,112.47a5.27,5.27,0,0,1-.41-.45l.71-.76a43.69,43.69,0,0,0,3.39-3.7c4.41-6.08,2.8-13.11-3.76-16.78a31.82,31.82,0,0,0-9-3.07c-.83-.18-1.67-.34-2.87-.58l1.71-1.56c2.5-2.24,5-4.49,6.62-7.49a16.59,16.59,0,0,0,1.87-5.34c.6-4.46-1.37-7.91-5.15-10.17a34.21,34.21,0,0,0-5.59-2.26,23.1,23.1,0,0,0-2.35-.58,21.27,21.27,0,0,0,.53-2.08,42.37,42.37,0,0,0,.88-6.48A10.32,10.32,0,0,0,195,40.89c-4-.58-7.68.42-11.4,1.54-.87.26-1.74.56-3,1,.24-.89.41-1.45.54-2a90.12,90.12,0,0,0,2-9.1,11.21,11.21,0,0,0-3-9.42c-3.19-3.34-7.18-3.6-11.39-2.87-1.46.25-2.88.72-4.52,1.15a18.48,18.48,0,0,0-.56-2.25A34.15,34.15,0,0,0,161,12.73c-3.34-5.12-9.39-6.22-15-3a31.81,31.81,0,0,0-7.52,6.6c-.5.54-1,1.09-1.71,1.92-.24-1.09-.36-1.87-.57-2.61-.68-2.39-1.23-4.82-2.11-7.13-1.78-4.63-5-7.65-10-8.51h-1.39c-4.38.72-7.69,3.18-10.47,6.49a1.06,1.06,0,0,1-.15.15l-.87-.81a40.59,40.59,0,0,0-3.7-3.38c-6.08-4.41-13.11-2.8-16.78,3.76a31.72,31.72,0,0,0-3.07,9c-.17.83-.34,1.66-.58,2.86l-1.55-1.71c-2.25-2.5-4.5-5-7.5-6.61a16.38,16.38,0,0,0-5.33-1.87c-4.47-.6-7.91,1.36-10.18,5.15a34.07,34.07,0,0,0-2.25,5.58A21.26,21.26,0,0,0,59.71,21c-.79-.2-1.43-.43-2.09-.53a43.65,43.65,0,0,0-6.48-.88,10.32,10.32,0,0,0-10.27,9.18c-.58,4,.41,7.68,1.53,11.39.26.88.57,1.74,1,3-.88-.23-1.44-.4-2-.53a87.64,87.64,0,0,0-9.11-2,11.21,11.21,0,0,0-9.42,3C19.5,46.82,19.24,50.82,20,55c.25,1.45.73,2.87,1.15,4.52a18.3,18.3,0,0,0-2.24.56,33.85,33.85,0,0,0-6.17,2.62c-5.13,3.34-6.22,9.38-3,15a32,32,0,0,0,6.6,7.52l1.92,1.71c-1.09.23-1.86.36-2.61.57-2.38.67-4.82,1.23-7.12,2.11C3.89,91.37.86,94.62,0,99.65V101c.72,4.39,3.18,7.69,6.49,10.48a3.06,3.06,0,0,1,.41.44l-.71.77a40.48,40.48,0,0,0-3.38,3.69C-1.6,122.5,0,129.53,6.57,133.2a31.39,31.39,0,0,0,9,3.06l2.86.59L16.7,138.4c-2.5,2.24-5,4.49-6.62,7.49a16.74,16.74,0,0,0-1.86,5.34c-.6,4.47,1.36,7.91,5.15,10.17A33.24,33.24,0,0,0,19,163.66a21.26,21.26,0,0,0,2.35.58c-.2.79-.43,1.43-.53,2.09a43.48,43.48,0,0,0-.88,6.48,10.33,10.33,0,0,0,9.18,10.27c4,.58,7.68-.42,11.39-1.53.88-.26,1.74-.57,3-1-.23.88-.4,1.44-.53,2a87.64,87.64,0,0,0-2,9.11,11.21,11.21,0,0,0,3,9.42c3.19,3.34,7.19,3.6,11.4,2.87,1.45-.25,2.87-.73,4.52-1.16a16.43,16.43,0,0,0,.56,2.25,33.85,33.85,0,0,0,2.62,6.17c3.34,5.13,9.38,6.22,15,3a32.24,32.24,0,0,0,7.52-6.6l1.71-1.92c.23,1.09.36,1.86.57,2.61.67,2.38,1.23,4.82,2.11,7.12,1.77,4.63,5,7.66,10,8.52h1.38c4.39-.73,7.69-3.18,10.48-6.49l.15-.16.87.81a42.09,42.09,0,0,0,3.69,3.39c6.09,4.41,13.12,2.79,16.78-3.77a31.3,31.3,0,0,0,3.07-9c.18-.83.34-1.66.58-2.86l1.56,1.71c2.24,2.5,4.49,5,7.49,6.62a16.42,16.42,0,0,0,5.34,1.86c4.46.61,7.91-1.36,10.17-5.14a33.69,33.69,0,0,0,2.26-5.59,23.1,23.1,0,0,0,.58-2.35,20.71,20.71,0,0,0,2.09.53,42.08,42.08,0,0,0,6.47.88,10.32,10.32,0,0,0,10.28-9.17c.58-4-.42-7.68-1.53-11.4-.27-.88-.57-1.74-1-3,.88.24,1.44.41,2,.54a90.12,90.12,0,0,0,9.1,2,11.24,11.24,0,0,0,9.43-3c3.34-3.19,3.6-7.19,2.87-11.39-.26-1.46-.73-2.88-1.16-4.52a18,18,0,0,0,2.25-.57,34.11,34.11,0,0,0,6.17-2.61c5.12-3.34,6.22-9.39,3-15a32.06,32.06,0,0,0-6.6-7.53l-1.91-1.7c1.08-.24,1.86-.36,2.6-.57,2.39-.68,4.82-1.23,7.13-2.12,4.63-1.77,7.66-5,8.52-10v-1.39C223.36,118.56,220.9,115.25,217.59,112.47Zm-8.92-14.33a12.32,12.32,0,0,1,5,2.17,6.08,6.08,0,0,1-2.35,3.31c-3.44,3.1-3.4,3-7.67,1.29-4.61-1.82-9.33-3.38-14-5a9.08,9.08,0,0,1-1.82-.76c1.9-1.24,3.52-3.07,6-3A72.06,72.06,0,0,1,208.67,98.14Zm-14.35,14a4.32,4.32,0,0,1-.76.4A130.53,130.53,0,0,1,174,117.73a4.23,4.23,0,0,1-2.18-.14c-4.35-1.7-8.66-3.48-13-5.24a3.85,3.85,0,0,1-.52-.29,4.77,4.77,0,0,1,.64-.36c4.17-1.7,8.33-3.4,12.51-5a3.92,3.92,0,0,1,2-.28,129.21,129.21,0,0,1,20.21,5.39A4.18,4.18,0,0,1,194.32,112.1Zm2.31-41.56a2.09,2.09,0,0,1,1.32-.92,15.72,15.72,0,0,1,6.94,1.2,8.2,8.2,0,0,1,1.29.94A19.69,19.69,0,0,1,203.75,75c-3.2,2.81-6.53,5.49-9.82,8.2-.44.36-1,.59-1.42,1-2.43,2.29-5.37,1.88-8.51,1.68a8.35,8.35,0,0,1,.66-.94A120,120,0,0,0,196.63,70.54Zm-22-13.23a69.16,69.16,0,0,1,14-5.81,11.63,11.63,0,0,1,5.42-.55c.27,3.18-1,5.69-2.43,8.14a1.51,1.51,0,0,1-1,.48,118.41,118.41,0,0,0-19.24,3.33c-.1,0-.21,0-.65-.08C172,60.85,172.47,58.46,174.63,57.31ZM162,48.39c.82-4.88,1.56-9.78,2.38-14.67a2.46,2.46,0,0,1,.74-1.6,15,15,0,0,1,6.63-2.34,10.33,10.33,0,0,1,1.49.18,30.49,30.49,0,0,1-.45,3.92,67,67,0,0,1-6.27,15.7,2.45,2.45,0,0,1-.75.93c-1.45.91-2.94,1.78-4.41,2.66L161,52.9C161.31,51.4,161.73,49.91,162,48.39Zm-3.54,32c1.68-3.18,4.42-4.78,7.85-5.58,5.22-1.21,10.39-2.6,15.59-3.89a12.42,12.42,0,0,1,1.73-.16,13.12,13.12,0,0,1-1.13,1.58c-4.58,4.61-9.16,9.23-13.81,13.79a4.68,4.68,0,0,1-2.42,1.15c-4.6.73-9.23,1.35-13.85,2-.22,0-.44,0-1,0l6.29-8A7.46,7.46,0,0,0,158.44,80.39ZM138,34.86a3.17,3.17,0,0,1,.58-1.59c3-4,5.93-8,9-11.82a12.06,12.06,0,0,1,4.7-3.58,7.21,7.21,0,0,1,1.06,1.89,60,60,0,0,1,.92,6,1.86,1.86,0,0,1-.71,1.42,126.2,126.2,0,0,0-14.87,12.43,3.3,3.3,0,0,1-.72.35C138,38.07,138,36.46,138,34.86Zm-2.71,32.69c.44-3.19.8-6.4,1.3-9.59a4.79,4.79,0,0,1,1-2.47c4.66-4.78,9.41-9.48,14.15-14.19a10.22,10.22,0,0,1,1.38-.91c-.07.77-.07,1.26-.16,1.74a127.23,127.23,0,0,1-5.1,19,5.14,5.14,0,0,1-1.52,2.2c-3.63,2.94-7.33,5.79-11,8.66a6.52,6.52,0,0,1-.81.48C134.85,70.69,135.12,69.12,135.33,67.55Zm-17.49-51.4c1.43-1.87,3-3.63,4.54-5.39.23-.26.7-.33,1.29-.58A13.89,13.89,0,0,1,125,12.94c.8,3.35,1.53,6.72,2.13,10.11.34,1.93.21,3.93.58,5.84.58,3.09-1.6,4.93-2.6,7.3l-.45-.06c-.19-.52-.4-1-.55-1.56A115.41,115.41,0,0,0,118,17.89C117.76,17.38,117.58,16.5,117.84,16.15Zm-11.5,34.12a128.32,128.32,0,0,1,5.4-20.2,1.75,1.75,0,0,1,.13-.29,3.88,3.88,0,0,1,.41.77,129.34,129.34,0,0,1,5.23,19.53,4.23,4.23,0,0,1-.14,2.18c-1.7,4.35-3.48,8.67-5.24,13a1.51,1.51,0,0,1-.09.18,5.06,5.06,0,0,1-.37-.66c-1.69-4.16-3.4-8.32-5-12.51A3.92,3.92,0,0,1,106.34,50.27ZM98.12,15.08a12.42,12.42,0,0,1,2.16-5,6.13,6.13,0,0,1,3.31,2.35c3.1,3.44,3,3.4,1.29,7.67-1.82,4.62-3.37,9.34-5,14A8.12,8.12,0,0,1,99.08,36c-1.24-1.89-3.06-3.52-3-6A72.16,72.16,0,0,1,98.12,15.08ZM87.26,57.5c.73,4.61,1.34,9.23,2,13.85,0,.22,0,.45,0,1-2.82-2.23-5.39-4.27-8-6.29a6.16,6.16,0,0,0-1-.73c-3.18-1.69-4.78-4.42-5.57-7.86-1.21-5.21-2.6-10.39-3.9-15.58a12.59,12.59,0,0,1-.16-1.73,13.57,13.57,0,0,1,1.58,1.12c4.62,4.59,9.24,9.17,13.79,13.82A4.7,4.7,0,0,1,87.26,57.5ZM70.79,18.86a9.5,9.5,0,0,1,.94-1.29A19.79,19.79,0,0,1,75,20c2.8,3.21,5.48,6.53,8.19,9.82.37.45.59,1,1,1.42,2.29,2.44,1.88,5.38,1.68,8.52a8.35,8.35,0,0,1-.94-.66,120.74,120.74,0,0,0-14.34-12,2,2,0,0,1-.92-1.32A15.74,15.74,0,0,1,70.79,18.86ZM63.32,77.37c2.93,3.62,5.78,7.32,8.66,11,.13.17.22.38.48.82-1.8-.28-3.36-.55-4.93-.77-3.2-.43-6.41-.8-9.59-1.3a4.63,4.63,0,0,1-2.47-1C50.69,81.45,46,76.7,41.28,72a9.44,9.44,0,0,1-.92-1.39c.78.07,1.27.07,1.74.16a127.35,127.35,0,0,1,19,5.1A5.29,5.29,0,0,1,63.32,77.37Zm2.43,34.54a3.32,3.32,0,0,1-.65.36c-4.16,1.7-8.32,3.4-12.51,5a3.92,3.92,0,0,1-2,.28,127.21,127.21,0,0,1-20.2-5.39,3.24,3.24,0,0,1-.63-.33,3.69,3.69,0,0,1,.75-.4,129.49,129.49,0,0,1,19.54-5.24,4.19,4.19,0,0,1,2.17.15c4.35,1.7,8.67,3.48,13,5.24C65.37,111.69,65.5,111.77,65.75,111.91ZM50.92,29.66c3.19-.27,5.69,1,8.14,2.44a1.44,1.44,0,0,1,.48,1,118.24,118.24,0,0,0,3.34,19.24,3.6,3.6,0,0,1-.09.65c-2-1.28-4.35-1.75-5.51-3.91a69.16,69.16,0,0,1-5.81-14A11.6,11.6,0,0,1,50.92,29.66Zm-21,20.87a34.24,34.24,0,0,1,3.92.45,67.27,67.27,0,0,1,15.7,6.28,2.38,2.38,0,0,1,.93.75c.92,1.44,1.78,2.93,2.66,4.4l-.27.37c-1.5-.34-3-.75-4.5-1-4.89-.81-9.79-1.55-14.68-2.37a2.46,2.46,0,0,1-1.59-.75A14.94,14.94,0,0,1,29.75,52,10.43,10.43,0,0,1,29.93,50.53ZM17.84,71.42a7.26,7.26,0,0,1,1.89-1.07,60,60,0,0,1,6-.91,1.81,1.81,0,0,1,1.42.71A127.91,127.91,0,0,0,39.54,85a3.87,3.87,0,0,1,.36.73c-1.85,0-3.46.05-5.07,0a2.93,2.93,0,0,1-1.58-.58c-4-3-8-5.93-11.83-9A12.12,12.12,0,0,1,17.84,71.42Zm-4.93,27.3c3.35-.8,6.72-1.53,10.12-2.13C25,96.25,27,96.37,28.87,96c3.08-.59,4.92,1.59,7.3,2.6l-.06.45c-.52.18-1,.4-1.56.55a112.27,112.27,0,0,0-16.68,6.15c-.52.24-1.4.42-1.75.15-1.86-1.42-3.63-3-5.38-4.53-.27-.24-.33-.71-.59-1.29A12.89,12.89,0,0,1,12.91,98.72Zm2.5,27.11a12.42,12.42,0,0,1-5-2.16,6.13,6.13,0,0,1,2.35-3.31c3.44-3.1,3.4-3,7.67-1.29,4.62,1.81,9.34,3.37,14,5a8.68,8.68,0,0,1,1.82.77c-1.89,1.24-3.52,3.06-6,2.95A72.16,72.16,0,0,1,15.41,125.83Zm12,27.6a2.06,2.06,0,0,1-1.32.92,15.88,15.88,0,0,1-6.94-1.19,9.5,9.5,0,0,1-1.29-.94A19.79,19.79,0,0,1,20.33,149c3.21-2.81,6.53-5.48,9.82-8.19.45-.37,1-.6,1.42-1C34,137.53,37,138,40.09,138.15a8.35,8.35,0,0,1-.66.94A120.74,120.74,0,0,0,27.45,153.43Zm22,13.24a69.16,69.16,0,0,1-14,5.81A11.6,11.6,0,0,1,30,173c-.27-3.19,1-5.7,2.44-8.14a1.44,1.44,0,0,1,1-.48,118.24,118.24,0,0,0,19.24-3.34,3.6,3.6,0,0,1,.65.09C52.08,163.12,51.61,165.51,49.45,166.67Zm12.65,8.91c-.81,4.89-1.56,9.79-2.37,14.67a2.47,2.47,0,0,1-.75,1.6,14.8,14.8,0,0,1-6.62,2.34,10.43,10.43,0,0,1-1.5-.18,34.33,34.33,0,0,1,.45-3.91,67.52,67.52,0,0,1,6.28-15.71,2.49,2.49,0,0,1,.74-.92c1.45-.92,2.94-1.78,4.41-2.66l.37.26C62.77,172.58,62.36,174.06,62.1,175.58Zm3.55-32c-1.69,3.19-4.43,4.79-7.86,5.58-5.21,1.21-10.39,2.6-15.58,3.9a14.93,14.93,0,0,1-1.73.15,13.29,13.29,0,0,1,1.12-1.57c4.59-4.62,9.17-9.24,13.82-13.79a4.7,4.7,0,0,1,2.41-1.16c4.61-.73,9.23-1.34,13.85-2,.22,0,.44,0,1,0-2.23,2.83-4.27,5.4-6.29,8A6.58,6.58,0,0,0,65.65,143.58ZM86,189.12a2.93,2.93,0,0,1-.58,1.58c-3,4-5.93,8-9,11.83a12.12,12.12,0,0,1-4.69,3.58,7.26,7.26,0,0,1-1.07-1.89,60.15,60.15,0,0,1-.91-6,1.81,1.81,0,0,1,.71-1.41A127,127,0,0,0,85.34,184.4a5,5,0,0,1,.73-.35C86.07,185.9,86.12,187.51,86,189.12Zm2.71-32.7c-.43,3.2-.8,6.4-1.3,9.59a4.66,4.66,0,0,1-1,2.47C81.78,173.26,77,178,72.3,182.67a9.44,9.44,0,0,1-1.39.92c.07-.78.07-1.27.16-1.74a127.35,127.35,0,0,1,5.1-19,5.16,5.16,0,0,1,1.53-2.2c3.62-2.94,7.32-5.78,11-8.66.17-.13.38-.22.82-.48C89.24,153.29,89,154.85,88.75,156.42Zm17.49,51.41c-1.42,1.86-3,3.62-4.53,5.38-.24.27-.71.33-1.29.59A13.36,13.36,0,0,1,99.05,211c-.8-3.35-1.53-6.73-2.13-10.12-.34-1.92-.22-3.93-.58-5.84-.59-3.08,1.59-4.93,2.6-7.3l.45.06c.18.52.4,1,.55,1.56a112.68,112.68,0,0,0,6.15,16.68C106.33,206.59,106.51,207.48,106.24,207.83Zm11.5-34.13a128.41,128.41,0,0,1-5.39,20.21,2.28,2.28,0,0,1-.13.28,3.37,3.37,0,0,1-.41-.76,129.49,129.49,0,0,1-5.24-19.54,4.19,4.19,0,0,1,.15-2.17c1.7-4.35,3.48-8.67,5.24-13a1.3,1.3,0,0,1,.08-.17,3.41,3.41,0,0,1,.37.65c1.7,4.16,3.4,8.33,5,12.51A3.92,3.92,0,0,1,117.74,173.7ZM126,208.89a12.38,12.38,0,0,1-2.17,5,6.08,6.08,0,0,1-3.31-2.35c-3.1-3.44-3-3.4-1.28-7.67,1.81-4.61,3.37-9.33,5-14A9.08,9.08,0,0,1,125,188c1.24,1.9,3.07,3.52,3,6A71.39,71.39,0,0,1,126,208.89Zm10.86-42.42c-.73-4.6-1.34-9.23-2-13.85,0-.22,0-.44-.05-1l8,6.29a6.75,6.75,0,0,0,1,.73c3.18,1.68,4.78,4.42,5.58,7.85,1.21,5.22,2.6,10.39,3.9,15.59a14.5,14.5,0,0,1,.15,1.73,13.17,13.17,0,0,1-1.57-1.13c-4.62-4.58-9.24-9.16-13.79-13.81A4.61,4.61,0,0,1,136.83,166.47Zm16.47,38.64a9.76,9.76,0,0,1-.94,1.29,19.79,19.79,0,0,1-3.22-2.43c-2.81-3.2-5.48-6.53-8.2-9.82-.36-.44-.59-1-1-1.42-2.29-2.44-1.88-5.37-1.67-8.51a9.08,9.08,0,0,1,.93.66,120.75,120.75,0,0,0,14.35,12,2.09,2.09,0,0,1,.92,1.32A15.86,15.86,0,0,1,153.3,205.11Zm7.47-58.5c-2.94-3.63-5.79-7.33-8.66-11a6.89,6.89,0,0,1-.48-.82c1.8.29,3.36.55,4.93.77,3.19.44,6.4.8,9.59,1.3a4.75,4.75,0,0,1,2.47,1c4.78,4.66,9.48,9.41,14.19,14.15a9.34,9.34,0,0,1,.91,1.38c-.77-.07-1.26-.07-1.74-.16a127.55,127.55,0,0,1-19-5.1A5.14,5.14,0,0,1,160.77,146.61Zm12.39,47.7c-3.18.27-5.69-1-8.14-2.43a1.46,1.46,0,0,1-.47-1,119.52,119.52,0,0,0-3.34-19.24c0-.1,0-.22.09-.65,2,1.29,4.35,1.75,5.5,3.91a69.19,69.19,0,0,1,5.82,14A11.75,11.75,0,0,1,173.16,194.31Zm21-20.87a30.49,30.49,0,0,1-3.92-.45,67,67,0,0,1-15.7-6.27,2.45,2.45,0,0,1-.93-.75c-.91-1.45-1.77-2.94-2.65-4.41l.26-.37c1.5.34,3,.76,4.51,1,4.88.82,9.78,1.56,14.67,2.38a2.46,2.46,0,0,1,1.6.74,14.84,14.84,0,0,1,2.34,6.63A10.48,10.48,0,0,1,194.15,173.44Zm12.09-20.89a6.83,6.83,0,0,1-1.89,1.07,59.53,59.53,0,0,1-6,.92,1.89,1.89,0,0,1-1.42-.71A126.2,126.2,0,0,0,184.54,139a3.76,3.76,0,0,1-.35-.73c1.85,0,3.46,0,5.07,0a3.14,3.14,0,0,1,1.58.58c4,3,7.95,5.93,11.82,9A12.1,12.1,0,0,1,206.24,152.55Zm4.94-27.29c-3.36.8-6.73,1.53-10.12,2.13-1.92.34-3.93.21-5.84.58-3.08.58-4.93-1.6-7.3-2.61l.06-.44c.52-.19,1-.4,1.56-.56a113.78,113.78,0,0,0,16.68-6.14c.51-.24,1.4-.42,1.75-.16,1.86,1.42,3.62,3,5.38,4.53.27.24.33.71.58,1.3A14.09,14.09,0,0,1,211.18,125.26Z" fill="url(#a)"/></svg>