<svg xmlns="http://www.w3.org/2000/svg" xmlns:xlink="http://www.w3.org/1999/xlink" viewBox="0 0 151.83 130.52"><defs><clipPath id="a" transform="translate(17.85)"><rect x="15.12" y="13.22" width="102.46" height="102.46" fill="none"/></clipPath></defs><rect x="17.85" width="128" height="128" fill="none"/><g clip-path="url(#a)"><path d="M1.63,107.74a22.79,22.79,0,1,1,22.79,22.78A22.79,22.79,0,0,1,1.63,107.74Z" transform="translate(17.85)"/><path d="M45,107.74a22.79,22.79,0,1,1,22.79,22.78A22.79,22.79,0,0,1,45,107.74Z" transform="translate(17.85)"/><path d="M88.4,107.74a22.79,22.79,0,1,1,22.79,22.78A22.79,22.79,0,0,1,88.4,107.74Z" transform="translate(17.85)"/><path d="M74.25,69.45A12.7,12.7,0,1,1,86.94,82.14,12.69,12.69,0,0,1,74.25,69.45Z" transform="translate(17.85)"/><path d="M-17.85,69.45A12.69,12.69,0,0,1-5.16,56.76,12.7,12.7,0,0,1,7.54,69.45,12.7,12.7,0,0,1-5.16,82.14,12.69,12.69,0,0,1-17.85,69.45Z" transform="translate(17.85)"/><path d="M14.49,39.55a8.73,8.73,0,1,1,8.73,8.72A8.73,8.73,0,0,1,14.49,39.55Z" transform="translate(17.85)"/><path d="M114.89,39.55a8.73,8.73,0,1,1,8.73,8.72A8.73,8.73,0,0,1,114.89,39.55Z" transform="translate(17.85)"/><path d="M123.78,18.58a5.1,5.1,0,1,1,5.1,5.1A5.11,5.11,0,0,1,123.78,18.58Z" transform="translate(17.85)"/><path d="M1.63,107.74a22.79,22.79,0,1,1,22.79,22.78A22.79,22.79,0,0,1,1.63,107.74Z" transform="translate(17.85)"/><path d="M45,107.74a22.79,22.79,0,1,1,22.79,22.78A22.79,22.79,0,0,1,45,107.74Z" transform="translate(17.85)"/><path d="M88.4,107.74a22.79,22.79,0,1,1,22.79,22.78A22.79,22.79,0,0,1,88.4,107.74Z" transform="translate(17.85)"/><path d="M43.55,69.45A12.7,12.7,0,1,1,56.24,82.14,12.69,12.69,0,0,1,43.55,69.45Z" transform="translate(17.85)"/><path d="M12.85,69.45A12.7,12.7,0,1,1,25.54,82.14,12.69,12.69,0,0,1,12.85,69.45Z" transform="translate(17.85)"/><path d="M39.59,39.55a8.73,8.73,0,1,1,8.73,8.72A8.73,8.73,0,0,1,39.59,39.55Z" transform="translate(17.85)"/><path d="M89.79,39.55a8.73,8.73,0,1,1,8.73,8.72A8.73,8.73,0,0,1,89.79,39.55Z" transform="translate(17.85)"/><path d="M-10.61,39.55a8.72,8.72,0,0,1,8.72-8.73,8.73,8.73,0,0,1,8.73,8.73,8.72,8.72,0,0,1-8.73,8.72A8.71,8.71,0,0,1-10.61,39.55Z" transform="translate(17.85)"/><path d="M50.11,18.58a5.1,5.1,0,1,1,5.1,5.1A5.1,5.1,0,0,1,50.11,18.58Z" transform="translate(17.85)"/><path d="M87,18.58A5.1,5.1,0,1,1,92,23.68,5.1,5.1,0,0,1,87,18.58Z" transform="translate(17.85)"/><path d="M1.63,107.74a22.79,22.79,0,1,1,22.79,22.78A22.79,22.79,0,0,1,1.63,107.74Z" transform="translate(17.85)"/><path d="M45,107.74a22.79,22.79,0,1,1,22.79,22.78A22.79,22.79,0,0,1,45,107.74Z" transform="translate(17.85)"/><path d="M88.4,107.74a22.79,22.79,0,1,1,22.79,22.78A22.79,22.79,0,0,1,88.4,107.74Z" transform="translate(17.85)"/><path d="M105,69.45a12.69,12.69,0,1,1,12.69,12.69A12.69,12.69,0,0,1,105,69.45Z" transform="translate(17.85)"/><path d="M64.69,39.55a8.73,8.73,0,1,1,8.73,8.72A8.73,8.73,0,0,1,64.69,39.55Z" transform="translate(17.85)"/><path d="M68.53,18.58a5.1,5.1,0,1,1,5.1,5.1A5.1,5.1,0,0,1,68.53,18.58Z" transform="translate(17.85)"/><path d="M105.37,18.58a5.1,5.1,0,1,1,5.09,5.1A5.1,5.1,0,0,1,105.37,18.58Z" transform="translate(17.85)"/><path d="M13.27,18.58a5.1,5.1,0,1,1,5.1,5.1A5.11,5.11,0,0,1,13.27,18.58Z" transform="translate(17.85)"/><path d="M-5.15,18.58A5.11,5.11,0,0,1,0,13.48a5.1,5.1,0,0,1,5.1,5.1A5.1,5.1,0,0,1,0,23.68,5.1,5.1,0,0,1-5.15,18.58Z" transform="translate(17.85)"/><path d="M31.69,18.58a5.1,5.1,0,1,1,5.1,5.1A5.1,5.1,0,0,1,31.69,18.58Z" transform="translate(17.85)"/></g><path d="M115.23,121.87H12.77a6.64,6.64,0,0,1-6.64-6.64V12.77a6.64,6.64,0,0,1,6.64-6.64H115.23a6.64,6.64,0,0,1,6.64,6.64V115.23A6.64,6.64,0,0,1,115.23,121.87ZM19.4,108.6h89.2V19.4H19.4Z" transform="translate(17.85)"/></svg>